<svg width="300" height="300" viewBox="0 0 300 300" fill="none" xmlns="http://www.w3.org/2000/svg">
<circle cx="150" cy="150" r="150" fill="#FEFAD3"/>
<mask id="mask0_1586_26726" style="mask-type:alpha" maskUnits="userSpaceOnUse" x="10" y="15" width="275" height="275">
<rect x="10" y="15" width="275" height="275" rx="137.5" fill="#973737"/>
</mask>
<g mask="url(#mask0_1586_26726)">
<rect x="-9.25537" y="7.6931" width="306.884" height="284.299" rx="142.15" fill="#39735D"/>
<path d="M283.546 189.359C283.544 189.361 283.542 189.36 283.541 189.358C278.713 172.119 266.783 147.149 254.038 134.581C250.496 130.299 234.732 115.525 227.29 110.175C219.804 105.542 211.57 101.813 203.359 98.428C180.983 89.1693 187.782 93.3839 174.355 89.4832C158.217 84.9323 155.841 86.5763 137.536 86.0756C131.761 86.0233 127.734 87.3535 112.388 89.8269C107.98 90.9702 104.05 93.3764 99.9404 95.2446C93.1937 97.7255 86.5293 100.334 80.4625 104.257C75.1877 107.268 69.5543 109.719 64.7128 113.426C56.965 120.891 47.7528 126.705 40.2888 134.476C16.0442 159.704 14.3781 181.711 11.1654 191.47C4.03765 211.348 3.31293 232.6 6.44344 253.232C8.53543 267.086 13.9372 288.675 20.9155 300.9C26.3846 312.528 32.0479 328.953 64.1898 353.269C70.2865 357.611 77.0929 360.831 83.608 364.47C88.5764 366.637 93.8438 368.057 98.9392 369.888C112.41 374.484 112.037 375.156 117.506 376.666C148.654 384.445 163.806 380.746 192.899 373.52C213.67 369.955 217.294 366.921 227.858 360.973C261.457 345.243 285.993 302.26 288.481 266.586C290.199 241.95 291.014 212.906 283.551 189.361C283.551 189.358 283.548 189.358 283.546 189.359Z" fill="#FDBFD1"/>
<path d="M117.259 168.328C117.207 163.628 113.484 159.933 108.706 159.986C103.992 160.038 100.288 163.814 100.34 168.515C100.392 173.215 104.179 176.909 108.893 176.857C113.671 176.804 117.311 173.029 117.259 168.328ZM182.795 166.897L182.672 155.821L148.64 161.928L148.796 176.03L182.795 166.897Z" fill="#39735D"/>
<path d="M193.61 193.019L193.996 227.854C194.196 245.884 181.873 258.578 163.727 258.778C145.517 258.979 132.847 246.303 132.645 228.08L132.423 208.119L100.587 208.47L100.427 194.047L193.61 193.019ZM181.565 207.577L144.563 207.985L144.747 224.534C144.886 237.09 151.746 244.163 163.499 244.033C175.252 243.903 181.888 236.682 181.749 224.19L181.565 207.577Z" fill="#39735D"/>
</g>
</svg>
